Coordinates
version=1
nRows=13
nColumns=22
inDegrees=yes

Units are S.I. units (second, meters, Newtons, ...)
If the header above contains a line with 'inDegrees', this indicates whether rotational values are in degrees (yes) or radians (no).

endheader
time	pelvis_tilt	pelvis_list	pelvis_rotation	pelvis_tx	pelvis_ty	pelvis_tz	hip_flexion_r	hip_adduction_r	hip_rotation_r	knee_angle_r	ankle_angle_r	subtalar_angle_r	hip_flexion_l	hip_adduction_l	hip_rotation_l	knee_angle_l	ankle_angle_l	subtalar_angle_l	lumbar_extension	lumbar_bending	lumbar_rotation
      1.79000000	      3.63850975	      1.10212739	    131.32193528	     -0.30526689	      0.94613592	      0.76307943	      3.69562863	     15.19891930	      3.10290461	    -13.70834913	     10.39778162	    -12.44767546	     31.84864127	     -8.01218944	      6.26578775	    -61.21267853	      8.47093343	      4.45510515	     -7.77184055	      2.38120124	      8.24875572
      1.80000000	      3.62550456	      1.09331476	    130.33687911	     -0.30942513	      0.94589284	      0.75631005	      2.62983123	     15.20224597	      4.08724212	    -13.08159893	     10.59163167	    -12.43573726	     32.28051460	     -7.86218451	      6.90758474	    -58.80886892	      8.77240664	      4.81286392	     -7.80955118	      2.35516089	      8.57747040
      1.81000000	      3.70903068	      1.04040024	    129.36703511	     -0.31351781	      0.94535628	      0.74956805	      1.73150822	     15.23426705	      5.08771103	    -12.55784305	     10.80950948	    -12.39127644	     32.72611862	     -7.77070845	      7.58052322	    -56.21367079	      8.98782818	      5.10938553	     -7.74431450	      2.38206314	      8.91122693
      1.82000000	      3.75743336	      0.99871845	    128.45059669	     -0.31769439	      0.94477941	      0.74285039	      0.84330744	     15.21700340	      6.00356786	    -12.09807105	     11.05720655	    -12.31954161	     33.00958061	     -7.65085979	      8.29366019	    -53.39386144	      9.21333847	      5.55539475	     -7.71837406	      2.39734507	      9.18848009
      1.83000000	      3.82906487	      0.93288773	    127.58140066	     -0.32188077	      0.94403299	      0.73615290	      0.05835959	     15.18876838	      6.85607835	    -11.73971929	     11.34813756	    -12.22990982	     33.22325879	     -7.53636942	      9.05446294	    -50.39316621	      9.42659625	      6.06099890	     -7.65950441	      2.41745209	      9.42946834
      1.84000000	      3.88912276	      0.88190395	    126.76748538	     -0.32609749	      0.94320871	      0.72950676	     -0.65281685	     15.15148551	      7.63245115	    -11.52842783	     11.64625567	    -12.09076538	     33.30582773	     -7.41524660	      9.89495672	    -47.22715810	      9.71298950	      6.75627912	     -7.63535904	      2.44624383	      9.59637686
      1.85000000	      3.96816660	      0.79516779	    125.97340158	     -0.33028945	      0.94221135	      0.72284466	     -1.24668967	     15.10550303	      8.38468635	    -11.43978483	     12.00203479	    -11.96104078	     33.32722748	     -7.31674287	     10.76280847	    -43.93687042	      9.99877991	      7.45575830	     -7.56972947	      2.46397609	      9.77515332
      1.86000000	      4.03983624	      0.69843153	    125.20739012	     -0.33449405	      0.94111412	      0.71617092	     -1.76198758	     15.04753235	      9.09685586	    -11.47483261	     12.39374036	    -11.83154314	     33.24312734	     -7.22735454	     11.69262668	    -40.54424237	     10.34079469	      8.27183306	     -7.50496039	      2.47003792	      9.94427832
      1.87000000	      4.09017219	      0.58621358	    124.45209574	     -0.33865148	      0.93993009	      0.70946663	     -2.18329560	     14.97226559	      9.79949889	    -11.67224855	     12.81891432	    -11.73483406	     33.05068384	     -7.15535625	     12.65774047	    -37.08068483	     10.71125367	      9.12504539	     -7.44819926	      2.43834444	     10.10492971
      1.88000000	      4.12698533	      0.46810976	    123.71517551	     -0.34279959	      0.93866551	      0.70274622	     -2.52235617	     14.89204793	     10.47197202	    -12.01606337	     13.28960918	    -11.65591766	     32.76486068	     -7.11096023	     13.67400351	    -33.60165069	     11.10297073	     10.10075832	     -7.40007047	      2.38975466	     10.25196649
      1.89000000	      4.14849860	      0.34202491	    122.98990111	     -0.34692373	      0.93733489	      0.69598218	     -2.79089356	     14.80646858	     11.12321930	    -12.48508447	     13.77174216	    -11.60469170	     32.39931092	     -7.10486086	     14.71009337	    -30.15800319	     11.48983527	     11.11330834	     -7.35668232	      2.31756401	     10.39617446
      1.90000000	      4.16504236	      0.20800606	    122.27548868	     -0.35101346	      0.93593060	      0.68918129	     -2.98320352	     14.72887002	     11.75202193	    -13.08087501	     14.27463175	    -11.57910459	     31.99171241	     -7.14957076	     15.72902931	    -26.82073883	     11.82324846	     12.13712300	     -7.31097470	      2.23205729	     10.53696303
      1.91000000	      4.14740785	      0.07460732	    121.54822941	     -0.35506096	      0.93451671	      0.68230707	     -3.12811184	     14.63607881	     12.34152101	    -13.80348859	     14.77819199	    -11.58940948	     31.52901019	     -7.23553318	     16.63927865	    -23.64874490	     12.06257462	     12.98708000	     -7.28709613	      2.10601593	     10.70726535
